<svg width="180" height="38" viewBox="0 0 180 38" xmlns="http://www.w3.org/2000/svg" xmlns:xlink="http://www.w3.org/1999/xlink"><title>Logo Top</title><defs><path id="a" d="M0 38V.116h37.885V38z"/><path id="c" d="M0 37.884h180V0H0z"/></defs><g fill="none" fill-rule="evenodd"><path fill="#0DA9FF" d="M11.054 14.807h15.777V12.03H11.054zm1.983 5.446h11.809v-2.778H13.037zm-1.983 5.446h15.777v-2.777H11.054z"/><g transform="translate(0 -8.116)"><g transform="translate(0 8)"><mask id="b" fill="#fff"><use xlink:href="#a"/></mask><path d="M20.33 35.159v-4.93h-2.776v4.93c-8.265-.707-14.777-7.656-14.777-16.101S9.289 3.664 17.554 2.957v4.93h2.777v-4.93c8.265.707 14.775 7.656 14.775 16.1 0 8.446-6.51 15.395-14.775 16.102M18.94.116C8.48.116 0 8.596 0 19.058S8.48 38 18.942 38c10.46 0 18.943-8.48 18.943-18.942C37.885 8.597 29.403.116 18.942.116" fill="#202326" mask="url(#b)"/></g><path d="M59.678 31.638c0 1.956-1.584 2.98-4.19 2.98h-6.335v-5.96h6.054c3.012 0 4.471 1.086 4.471 2.918v.062zm-.497-4.937c1.614-.838 3.104-2.235 3.104-4.843v-.062c0-1.46-.496-2.64-1.459-3.602-1.242-1.242-3.197-1.925-5.68-1.925h-9.75v3.385h9.253c2.452 0 3.818 1.055 3.818 2.762v.062c0 1.988-1.645 2.95-4.099 2.95h-8.972v12.574h10.06c4.843 0 8.04-2.08 8.04-5.961v-.062c0-2.95-1.769-4.408-4.315-5.278zM91.783 16.27h3.539l11.643 15.026V16.27h3.756v21.733h-3.197L95.54 22.54v15.462h-3.757zm24.592 0h3.818v10.928l10.339-10.929h4.689l-9.035 9.345 9.438 12.388h-4.626l-7.421-9.78-3.384 3.478v6.302h-3.818z" fill="#202326"/><mask id="d" fill="#fff"><use xlink:href="#c"/></mask><path d="M139.248 19.684h16.907v-3.415h-16.907v3.415zm0 9.066h13.129v-3.415h-13.129v3.415zm0 9.252h17.062v-3.415h-17.062v3.415zM167.58 26.95l-7.605-10.68h4.502l5.402 7.792 5.433-7.793h4.377l-7.575 10.618L180 38.002h-4.502l-5.713-8.228-5.743 8.228h-4.378z" fill="#0DA9FF" mask="url(#d)"/><path fill="#202326" mask="url(#d)" d="M88.39 38.002l-9.564-21.888h-3.539l-9.562 21.888h3.911l7.358-17.324 3.704 8.717h-4.156l-1.422 3.384h7.015l2.218 5.223z"/></g></g></svg>